<svg xmlns="http://www.w3.org/2000/svg" viewBox="0 0 425.2 425.2"><defs><style>.cls-1{fill:#1d1d1b;}.cls-2{fill:#fff;}.cls-3{fill:#e6332a;}.cls-4{fill:#3aaa35;}.cls-5{fill:#95c11f;}.cls-6{fill:#dedc00;}.cls-7{fill:#fcea10;}.cls-8{fill:#f9b233;}.cls-9{fill:#f39200;}.cls-10{fill:#e94e1b;}.cls-11{fill:#be1622;}.cls-12{fill:none;}.cls-12,.cls-13{stroke:#1d1d1b;stroke-miterlimit:10;}.cls-13{fill:#ededed;stroke-width:0.25px;}.cls-14{fill:#878787;}</style></defs><g id="Layer_1" data-name="Layer 1"><circle id="Outer" class="cls-1" cx="212.6" cy="212.6" r="212.6"/><circle id="Inner" class="cls-2" cx="212.6" cy="212.6" r="204.09"/></g><g id="Slices"><path class="cls-3" d="M401.36,151.26,212.6,212.59,373.14,96A197.94,197.94,0,0,1,401.36,151.26Z"/><path class="cls-4" d="M212.6,212.59H14.17a198.34,198.34,0,0,1,9.66-61.33Z"/><path class="cls-5" d="M212.6,212.59,23.83,151.26A197.94,197.94,0,0,1,52.05,96Z"/><path class="cls-6" d="M96,52.06,212.6,212.59,52.05,96A199.58,199.58,0,0,1,96,52.06Z"/><path class="cls-7" d="M151.26,23.83,212.6,212.59,96,52.06A197.64,197.64,0,0,1,151.26,23.83Z"/><path class="cls-8" d="M212.6,14.17V212.59L151.26,23.83A198.31,198.31,0,0,1,212.6,14.17Z"/><path class="cls-8" d="M273.93,23.83,212.6,212.59V14.17A198.34,198.34,0,0,1,273.93,23.83Z"/><path class="cls-9" d="M329.24,52.05,212.6,212.59,273.93,23.83A197.94,197.94,0,0,1,329.24,52.05Z"/><path class="cls-10" d="M373.14,96,212.6,212.59,329.24,52.05A200,200,0,0,1,373.14,96Z"/><path class="cls-11" d="M411,212.59H212.6l188.76-61.33A198.34,198.34,0,0,1,411,212.59Z"/><polyline class="cls-12" points="47.48 92.63 52.05 95.95 212.6 212.59"/><polyline class="cls-12" points="92.63 47.48 95.96 52.06 212.6 212.59"/><polyline class="cls-12" points="149.51 18.44 151.26 23.83 212.6 212.59"/><polyline class="cls-12" points="212.6 212.59 14.17 212.59 8.5 212.59"/><polyline class="cls-12" points="18.44 149.51 23.83 151.26 212.6 212.59"/><polyline class="cls-12" points="212.6 212.59 411.02 212.59 416.69 212.59"/><polyline class="cls-12" points="406.76 149.51 401.36 151.26 212.6 212.59"/><polyline class="cls-12" points="377.71 92.63 373.14 95.95 212.6 212.59"/><polyline class="cls-12" points="332.56 47.48 329.24 52.05 212.6 212.59"/><polyline class="cls-12" points="275.68 18.44 273.93 23.83 212.6 212.59"/><polyline class="cls-12" points="212.6 8.5 212.6 14.17 212.6 212.59"/><path class="cls-12" d="M411,212.59a198.43,198.43,0,1,0-396.85,0C14.17,322.18,103,411,212.6,411S411,322.18,411,212.59Z"/></g><g id="Text"><rect class="cls-13" x="21.29" y="202.55" width="42.45" height="21.57" rx="5.66"/><path class="cls-1" d="M30.45,219.46a8,8,0,0,0,3.89,1.1c3,0,4-1.94,4-3.4,0-2.45-2.24-3.51-4.54-3.51H32.45v-1.78h1.32c1.73,0,3.91-.89,3.91-3,0-1.4-.89-2.64-3.07-2.64a6.41,6.41,0,0,0-3.51,1.16l-.62-1.73a8.39,8.39,0,0,1,4.59-1.35c3.45,0,5,2,5,4.19a4.35,4.35,0,0,1-3.24,4.12v.06a4.56,4.56,0,0,1,3.91,4.51c0,2.8-2.18,5.26-6.4,5.26a8.9,8.9,0,0,1-4.56-1.19Z"/><path class="cls-1" d="M55.4,213.22c0,6-2.22,9.26-6.1,9.26-3.43,0-5.75-3.21-5.81-9s2.54-9.12,6.1-9.12S55.4,207.63,55.4,213.22Zm-9.53.27c0,4.56,1.4,7.15,3.56,7.15,2.43,0,3.59-2.83,3.59-7.31,0-4.32-1.11-7.15-3.56-7.15C47.38,206.18,45.87,208.71,45.87,213.49Z"/><rect class="cls-13" x="353.12" y="150.1" width="42.45" height="21.57" rx="5.66"/><path class="cls-1" d="M359.49,154.3h-.06l-3.05,1.64-.45-1.81,3.83-2h2v17.55h-2.29Z"/><path class="cls-1" d="M368.18,169.63v-1.46l1.87-1.81c4.48-4.26,6.5-6.53,6.53-9.18a3.13,3.13,0,0,0-3.48-3.42,6,6,0,0,0-3.73,1.48l-.76-1.67a7.7,7.7,0,0,1,5-1.78c3.78,0,5.37,2.59,5.37,5.1,0,3.24-2.34,5.86-6,9.42l-1.41,1.29v.06h7.89v2Z"/><path class="cls-1" d="M393.7,160.67c0,6-2.22,9.26-6.11,9.26-3.42,0-5.74-3.22-5.8-9s2.54-9.12,6.1-9.12S393.7,155.08,393.7,160.67Zm-9.53.27c0,4.56,1.4,7.15,3.56,7.15,2.43,0,3.59-2.83,3.59-7.31,0-4.32-1.11-7.16-3.56-7.16C385.68,153.62,384.17,156.16,384.17,160.94Z"/><rect class="cls-13" x="29.8" y="148.74" width="42.45" height="21.57" rx="5.66"/><path class="cls-1" d="M45.74,168.37V163.6H37.59V162l7.82-11.2H48v10.9h2.45v1.87H48v4.77Zm0-6.64v-5.85c0-.92,0-1.84.08-2.76h-.08c-.54,1-1,1.78-1.46,2.59l-4.29,6v0Z"/><path class="cls-1" d="M63.91,159.41c0,6-2.22,9.26-6.1,9.26-3.43,0-5.75-3.21-5.81-9s2.54-9.12,6.1-9.12S63.91,153.82,63.91,159.41Zm-9.53.27c0,4.56,1.4,7.16,3.56,7.16,2.43,0,3.59-2.84,3.59-7.32,0-4.32-1.1-7.15-3.56-7.15C55.89,152.37,54.38,154.9,54.38,159.68Z"/><rect class="cls-13" x="54.99" y="103.46" width="42.45" height="21.57" rx="5.66"/><path class="cls-1" d="M74.05,107.55H67.36l-.67,4.5a10,10,0,0,1,1.43-.1,7.39,7.39,0,0,1,3.78.94,5,5,0,0,1,2.51,4.51c0,3.43-2.73,6-6.54,6a8.6,8.6,0,0,1-4.37-1.08l.59-1.81a7.9,7.9,0,0,0,3.76,1,3.86,3.86,0,0,0,4.15-3.8c0-2.27-1.54-3.89-5-3.89a18.17,18.17,0,0,0-2.43.19l1.13-8.42h8.39Z"/><path class="cls-1" d="M89.09,114.13c0,6-2.21,9.26-6.1,9.26-3.43,0-5.75-3.21-5.8-9s2.54-9.12,6.1-9.12S89.09,108.54,89.09,114.13Zm-9.53.27c0,4.56,1.41,7.15,3.57,7.15,2.43,0,3.59-2.83,3.59-7.31,0-4.32-1.11-7.15-3.57-7.15C81.08,107.09,79.56,109.62,79.56,114.4Z"/><rect class="cls-13" x="91.46" y="65.04" width="42.45" height="21.57" rx="5.66"/><path class="cls-1" d="M110.07,68.79a8.9,8.9,0,0,0-1.78.11,7.12,7.12,0,0,0-6.1,6.24h.08a5.21,5.21,0,0,1,4.24-2c3.1,0,5.29,2.24,5.29,5.67C111.8,82,109.61,85,106,85s-6.21-2.91-6.21-7.47a11,11,0,0,1,3-7.91A9.53,9.53,0,0,1,108.34,67a11.28,11.28,0,0,1,1.73-.14Zm-.68,10.13c0-2.51-1.43-4-3.61-4a3.9,3.9,0,0,0-3.4,2.16,2,2,0,0,0-.27,1.06c0,2.88,1.37,5,3.86,5C108,83.13,109.39,81.43,109.39,78.92Z"/><path class="cls-1" d="M125.57,75.7c0,6-2.22,9.26-6.1,9.26-3.43,0-5.75-3.21-5.81-9s2.54-9.13,6.1-9.13S125.57,70.12,125.57,75.7ZM116,76c0,4.57,1.4,7.16,3.56,7.16,2.43,0,3.59-2.84,3.59-7.32,0-4.32-1.11-7.15-3.56-7.15C117.55,68.66,116,71.2,116,76Z"/><rect class="cls-13" x="138.92" y="41.12" width="42.45" height="21.57" rx="5.66"/><path class="cls-1" d="M158.9,43.2v1.57l-7.64,16h-2.45l7.61-15.53v0h-8.58v-2Z"/><path class="cls-1" d="M173,51.78c0,6-2.21,9.26-6.1,9.26-3.43,0-5.75-3.21-5.8-9s2.54-9.13,6.1-9.13S173,46.2,173,51.78Zm-9.53.27c0,4.57,1.41,7.16,3.57,7.16,2.43,0,3.59-2.84,3.59-7.32,0-4.32-1.11-7.15-3.57-7.15C165,44.74,163.49,47.28,163.49,52.05Z"/><rect class="cls-13" x="191.37" y="32.85" width="42.45" height="21.57" rx="5.66"/><path class="cls-1" d="M199.75,48c0-2.22,1.32-3.78,3.48-4.7l0-.08a4.35,4.35,0,0,1-2.78-3.94c0-2.78,2.35-4.67,5.43-4.67,3.4,0,5.1,2.13,5.1,4.32a4.45,4.45,0,0,1-2.89,4.1v.08c2.19.87,3.54,2.4,3.54,4.54,0,3-2.62,5.1-6,5.1C202,52.78,199.75,50.59,199.75,48Zm9.45-.11c0-2.13-1.49-3.16-3.86-3.83-2.05.59-3.16,1.94-3.16,3.61a3.24,3.24,0,0,0,3.51,3.35C207.82,51.05,209.2,49.73,209.2,47.92Zm-6.54-8.77c0,1.75,1.33,2.7,3.35,3.24a3.47,3.47,0,0,0,2.67-3.19,2.72,2.72,0,0,0-3-2.86A2.8,2.8,0,0,0,202.66,39.15Z"/><path class="cls-1" d="M225.48,43.52c0,6-2.22,9.26-6.1,9.26-3.43,0-5.75-3.21-5.81-9s2.54-9.12,6.1-9.12S225.48,37.93,225.48,43.52Zm-9.53.27c0,4.56,1.4,7.15,3.56,7.15,2.43,0,3.59-2.83,3.59-7.31,0-4.32-1.11-7.16-3.56-7.16C217.46,36.47,216,39,216,43.79Z"/><rect class="cls-13" x="243.83" y="41.12" width="42.45" height="21.57" rx="5.66"/><path class="cls-1" d="M253.8,59.07a9.45,9.45,0,0,0,1.91-.08,6.58,6.58,0,0,0,3.67-1.7,7.67,7.67,0,0,0,2.32-4.67h-.08a5.27,5.27,0,0,1-9.31-3.48,6,6,0,0,1,6-6.24c3.59,0,5.81,2.92,5.81,7.4,0,3.86-1.3,6.56-3,8.23a8.75,8.75,0,0,1-5.1,2.35,11.22,11.22,0,0,1-2.18.14ZM254.66,49c0,2.18,1.32,3.72,3.37,3.72a3.93,3.93,0,0,0,3.46-1.83,1.64,1.64,0,0,0,.21-.87c0-3-1.1-5.29-3.59-5.29C256.09,44.71,254.66,46.49,254.66,49Z"/><path class="cls-1" d="M277.93,51.78c0,6-2.21,9.26-6.1,9.26-3.43,0-5.75-3.21-5.8-9s2.53-9.13,6.1-9.13S277.93,46.2,277.93,51.78Zm-9.53.27c0,4.57,1.41,7.16,3.56,7.16,2.43,0,3.59-2.84,3.59-7.32,0-4.32-1.1-7.15-3.56-7.15C269.91,44.74,268.4,47.28,268.4,52.05Z"/><rect class="cls-13" x="328.81" y="102.79" width="42.45" height="21.57" rx="5.66"/><path class="cls-1" d="M335.18,107h-.05l-3.05,1.65-.46-1.81,3.83-2h2v17.55h-2.3Z"/><path class="cls-1" d="M349,107h0l-3.05,1.65-.46-1.81,3.83-2h2v17.55H349Z"/><path class="cls-1" d="M369.39,113.36c0,6-2.21,9.26-6.1,9.26-3.43,0-5.75-3.21-5.8-9s2.53-9.13,6.1-9.13S369.39,107.78,369.39,113.36Zm-9.53.27c0,4.57,1.41,7.16,3.56,7.16,2.43,0,3.59-2.84,3.59-7.32,0-4.32-1.1-7.15-3.56-7.15C361.37,106.32,359.86,108.86,359.86,113.63Z"/><rect class="cls-13" x="292.5" y="65.14" width="42.45" height="21.57" rx="5.66"/><path class="cls-1" d="M298.87,69.34h-.05L295.76,71l-.45-1.81,3.83-2h2V84.67h-2.29Z"/><path class="cls-1" d="M319.22,75.71c0,6-2.21,9.25-6.1,9.25-3.42,0-5.75-3.21-5.8-9s2.54-9.12,6.1-9.12S319.22,70.12,319.22,75.71ZM309.7,76c0,4.56,1.4,7.15,3.56,7.15,2.43,0,3.59-2.84,3.59-7.32,0-4.31-1.11-7.15-3.56-7.15C311.21,68.66,309.7,71.2,309.7,76Z"/><path class="cls-1" d="M333.07,75.71c0,6-2.21,9.25-6.09,9.25-3.43,0-5.75-3.21-5.81-9s2.54-9.12,6.1-9.12S333.07,70.12,333.07,75.71Zm-9.52.27c0,4.56,1.4,7.15,3.56,7.15,2.43,0,3.59-2.84,3.59-7.32,0-4.31-1.11-7.15-3.56-7.15C325.06,68.66,323.55,71.2,323.55,76Z"/><rect class="cls-13" x="361.45" y="202.65" width="42.45" height="21.57" rx="5.66"/><path class="cls-1" d="M367.82,206.85h-.05l-3,1.65-.46-1.81,3.83-2.05h2v17.54h-2.29Z"/><path class="cls-1" d="M377.08,219.46a8,8,0,0,0,3.89,1.1c3,0,4-1.94,4-3.4,0-2.45-2.24-3.51-4.54-3.51h-1.32v-1.78h1.32c1.73,0,3.92-.89,3.92-3,0-1.4-.89-2.64-3.08-2.64a6.47,6.47,0,0,0-3.51,1.16l-.62-1.73a8.39,8.39,0,0,1,4.59-1.35c3.45,0,5,2,5,4.19a4.35,4.35,0,0,1-3.24,4.12v.06a4.56,4.56,0,0,1,3.91,4.51c0,2.8-2.18,5.26-6.39,5.26a8.87,8.87,0,0,1-4.56-1.19Z"/><path class="cls-1" d="M402,213.22c0,6-2.22,9.26-6.1,9.26-3.43,0-5.75-3.21-5.81-9s2.54-9.12,6.1-9.12S402,207.63,402,213.22Zm-9.53.27c0,4.56,1.4,7.15,3.56,7.15,2.43,0,3.59-2.83,3.59-7.31,0-4.32-1.1-7.15-3.56-7.15C394,206.18,392.5,208.71,392.5,213.49Z"/></g><g id="Layer_8" data-name="Layer 8"><path class="cls-12" d="M70.87,212.6a141.73,141.73,0,0,1,283.46,0"/><circle class="cls-12" cx="212.6" cy="212.6" r="11.34"/><path class="cls-1" d="M137.1,333.24a.81.81,0,0,1-.23.59.78.78,0,0,1-.58.23h-2.92a.77.77,0,0,1-.81-.82v-9.83a.77.77,0,0,1,.81-.82h2.89a.77.77,0,0,1,.58.23.81.81,0,0,1,.23.59v2.53h-1V323.5h-2.48v4.24h2.72a.79.79,0,0,1,.81.81Zm-1-.08v-4.53h-2.51v4.53Z"/><path class="cls-1" d="M143.59,333.24a.77.77,0,0,1-.23.59.82.82,0,0,1-.59.23h-3a.79.79,0,0,1-.82-.82v-9.83a.79.79,0,0,1,.82-.82h3a.82.82,0,0,1,.59.23.77.77,0,0,1,.23.59Zm-1-.08V323.5h-2.65v9.66Z"/><path class="cls-1" d="M155.23,334.06h-1v-.2q-1.58.24-1.74.24a1.27,1.27,0,0,1-1-.42,1.48,1.48,0,0,1-.38-1.05v-4.17a1.49,1.49,0,0,1,1.51-1.53h1.61v-4.34h1Zm-1-.89v-5.38h-1.35a.72.72,0,0,0-.81.83v3.8a.72.72,0,0,0,.81.82Z"/><path class="cls-1" d="M161.55,333.24a.79.79,0,0,1-.82.82H157V322.59h3.75a.79.79,0,0,1,.82.82v3.4a.91.91,0,0,1-.41.76l-.81.49.86.56a.79.79,0,0,1,.39.73ZM160.49,327V323.5H158v4.13h1.5Zm0,6.21v-4l-1-.67H158v4.64Z"/><path class="cls-1" d="M164.72,335h-.59a8.28,8.28,0,0,1,0-8.62h.59v.05a9.38,9.38,0,0,0-.86,2,9.48,9.48,0,0,0,0,4.41,9.38,9.38,0,0,0,.86,2.05Z"/><path class="cls-1" d="M168.73,334.06h-.67l-.27-1.7h-1.52l-.27,1.7h-.65v0l1.36-7.64h.67Zm-1-2.3-.67-4.14-.67,4.14Z"/><path class="cls-1" d="M171.16,330.73A8,8,0,0,1,170,335h-.58V335a8.85,8.85,0,0,0,.85-2.05,9.14,9.14,0,0,0,0-4.41,8.85,8.85,0,0,0-.85-2v-.05H170A8,8,0,0,1,171.16,330.73Z"/><path class="cls-1" d="M205.7,334.06h-1v-7.95h-.44v0l.64-3.48h.83Z"/><path class="cls-1" d="M211.87,334.06h-4.55v-.55l3.51-7.28V323.5h-2.34v2.57h-1v-2.66a.79.79,0,0,1,.82-.82H211a.78.78,0,0,1,.58.23.77.77,0,0,1,.23.59v2.43a2.35,2.35,0,0,1-.27,1l-3,6.32h3.32Z"/><path class="cls-1" d="M217.43,334.06h-1V327.8l-2.15.06v6.2h-1V322.59h1v4.54l1.16-.15a10,10,0,0,1,1.15-.09.71.71,0,0,1,.81.79Z"/><path class="cls-1" d="M241.63,334.06h-1V322.59h1Z"/><path class="cls-1" d="M247.15,329.27h-1V327.8l-1.8.06v6.2h-1v-7.13h1v.2l1-.16a8,8,0,0,1,1-.08.7.7,0,0,1,.8.79Z"/><path class="cls-1" d="M252.12,329.27h-1V327.8l-1.79.06v6.2h-1v-7.13h1v.2l1-.16a8.13,8.13,0,0,1,1-.08.7.7,0,0,1,.8.79Z"/><path class="cls-1" d="M254.39,325.37h-1v-1.23h1Zm0,8.69h-1v-7.13h1Z"/><path class="cls-1" d="M258.6,334.06h-1.39a.73.73,0,0,1-.82-.83v-5.44h-.86v-.86h.86v-2.22h1v2.22h1.25v.86h-1.25v5.41h1.25Z"/><path class="cls-1" d="M263.87,334.06h-1v-.2l-1.16.15a9.71,9.71,0,0,1-1.15.09.7.7,0,0,1-.8-.79v-2.6a.73.73,0,0,1,.83-.82h2.29v-2.15h-2.09V329h-.95v-1.2a.73.73,0,0,1,.82-.83h2.35a.73.73,0,0,1,.82.83Zm-.95-.89v-2.52h-2.17v2.57Z"/><path class="cls-1" d="M268,334.06h-1.38a.74.74,0,0,1-.83-.83v-5.44H265v-.86h.85v-2.22h1v2.22H268v.86h-1.25v5.41H268Z"/><path class="cls-1" d="M270.31,325.37h-1v-1.23h1Zm0,8.69h-1v-7.13h1Z"/><path class="cls-1" d="M276,334.06h-1V327.8l-2.15.06v6.2h-1v-7.13h1v.2l1.15-.16c.47-.05.86-.08,1.16-.08a.71.71,0,0,1,.81.79Z"/><path class="cls-1" d="M281.67,335.93a.74.74,0,0,1-.83.83h-2.31c-.57,0-.85-.35-.85-1.05,0-.08,0-.2,0-.37s0-.28,0-.35h1v.94h2v-1.87h-1.6a1.49,1.49,0,0,1-1.52-1.53v-4.17a1.52,1.52,0,0,1,.38-1.05,1.28,1.28,0,0,1,1-.42c.12,0,.69.08,1.74.24v-.2h1Zm-1-2.73v-5.38l-1.35-.08a.72.72,0,0,0-.8.82v3.82a.72.72,0,0,0,.8.82Z"/><path class="cls-1" d="M137.18,351.24a.78.78,0,0,1-.24.59.81.81,0,0,1-.59.23h-3a.78.78,0,0,1-.58-.23.8.8,0,0,1-.22-.59v-3.73a.8.8,0,0,1,.37-.73l1.11-.72-1.08-.68a.8.8,0,0,1-.37-.74v-3.23a.77.77,0,0,1,.81-.82h3a.79.79,0,0,1,.81.82v3.23a.8.8,0,0,1-.38.74l-1.08.68,1.09.72a.81.81,0,0,1,.4.73Zm-1-.08v-3.8l-1.3-.85-1.3.85v3.8Zm0-6.38V341.5h-2.55v3.28l1.28.85Z"/><path class="cls-1" d="M143.43,351.24a.8.8,0,0,1-.22.59.82.82,0,0,1-.59.23H139.8a.78.78,0,0,1-.58-.23.81.81,0,0,1-.23-.59v-2.9h1v2.82h2.4v-5.4H139l.14-5.17h4.18v.91h-3.19l-.12,3.36h2.59a.76.76,0,0,1,.81.81Z"/><path class="cls-1" d="M155,352.06h-1v-.2c-1,.16-1.62.24-1.73.24a1.31,1.31,0,0,1-1-.42,1.52,1.52,0,0,1-.38-1.05v-4.17a1.49,1.49,0,0,1,1.52-1.53H154v-4.34h1Zm-1-.89v-5.38h-1.35c-.53,0-.8.27-.8.83v3.8a.72.72,0,0,0,.8.82C152.81,351.24,153.26,351.22,154,351.17Z"/><path class="cls-1" d="M161.31,351.24a.77.77,0,0,1-.23.59.78.78,0,0,1-.58.23h-3.78V340.59h3.75a.78.78,0,0,1,.58.23.77.77,0,0,1,.23.59v3.4a.89.89,0,0,1-.41.76l-.8.49.86.56a.8.8,0,0,1,.38.73ZM160.26,345V341.5h-2.52v4.13h1.5Zm0,6.21v-4l-1-.67h-1.51v4.64Z"/><path class="cls-1" d="M164.49,353h-.6a8.28,8.28,0,0,1,0-8.62h.6v.05a8.92,8.92,0,0,0-.86,2,9.48,9.48,0,0,0,0,4.41,8.92,8.92,0,0,0,.86,2.05Z"/><path class="cls-1" d="M168.5,352.06h-.68l-.26-1.7H166l-.27,1.7h-.66v0l1.37-7.64h.67Zm-1-2.3-.67-4.14-.67,4.14Z"/><path class="cls-1" d="M170.93,348.73a8.05,8.05,0,0,1-1.22,4.31h-.57V353a8.85,8.85,0,0,0,.85-2.05,9.14,9.14,0,0,0,0-4.41,8.85,8.85,0,0,0-.85-2v-.05h.57A8,8,0,0,1,170.93,348.73Z"/><path class="cls-1" d="M209.18,351.24a.78.78,0,0,1-.24.59.81.81,0,0,1-.59.23h-3a.78.78,0,0,1-.58-.23.8.8,0,0,1-.22-.59v-3.73a.8.8,0,0,1,.37-.73l1.11-.72-1.08-.68a.8.8,0,0,1-.37-.74v-3.23a.77.77,0,0,1,.81-.82h3a.79.79,0,0,1,.81.82v3.23a.8.8,0,0,1-.38.74l-1.08.68,1.09.72a.81.81,0,0,1,.4.73Zm-1-.08v-3.8l-1.3-.85-1.3.85v3.8Zm0-6.38V341.5h-2.55v3.28l1.28.85Z"/><path class="cls-1" d="M215,352.06h-1V345.8l-2.15.06v6.2h-1V340.59h1v4.54L213,345a10,10,0,0,1,1.15-.09.71.71,0,0,1,.81.79Z"/><path class="cls-1" d="M245.43,352.06h-1.07l-2.13-6.14.14-.21h1.82V341.5h-2.62v10.56h-1V340.59h3.83a.79.79,0,0,1,.82.82v4.35c0,.55-.37.83-1.12.83l-.32,0h-.31Q244.45,349.3,245.43,352.06Z"/><path class="cls-1" d="M247.87,343.37h-1v-1.23h1Zm0,8.69h-1v-7.13h1Z"/><path class="cls-1" d="M253.35,351.23a.73.73,0,0,1-.83.83h-2.23a.74.74,0,0,1-.83-.83v-1.62h1v1.61h2v-1.43l-2.55-2.08a1,1,0,0,1-.36-.77v-1.18a.73.73,0,0,1,.82-.83h2.21a.74.74,0,0,1,.83.83v1.42h-1v-1.41h-2V347l2.57,2.09a.92.92,0,0,1,.36.77Z"/><path class="cls-1" d="M258.9,352.06h-1.07l-2-3.64v3.64h-1V340.59h1v7.29l1.83-2.95h1.05v0l-2.07,3.15Z"/><path class="cls-1" d="M133.7,370.06h-1v-7.95h-.44v0l.64-3.48h.83Z"/><path class="cls-1" d="M140.28,369.24a.77.77,0,0,1-.23.59.82.82,0,0,1-.59.23h-3a.79.79,0,0,1-.82-.82v-9.83a.79.79,0,0,1,.82-.82h3a.82.82,0,0,1,.59.23.77.77,0,0,1,.23.59Zm-1-.08V359.5h-2.65v9.66Z"/><path class="cls-1" d="M146.79,369.24a.77.77,0,0,1-.23.59.82.82,0,0,1-.59.23h-3a.79.79,0,0,1-.82-.82v-9.83a.79.79,0,0,1,.82-.82h3a.82.82,0,0,1,.59.23.77.77,0,0,1,.23.59Zm-1-.08V359.5h-2.65v9.66Z"/><path class="cls-1" d="M155.5,370.06h-1v-.2c-1.05.16-1.62.24-1.74.24a1.28,1.28,0,0,1-1-.42,1.52,1.52,0,0,1-.38-1.05v-4.17a1.49,1.49,0,0,1,1.51-1.53h1.61v-4.34h1Zm-1-.89v-5.38h-1.35c-.54,0-.8.27-.8.83v3.8c0,.55.26.82.8.82C153.31,369.24,153.76,369.22,154.53,369.17Z"/><path class="cls-1" d="M161.81,369.24a.81.81,0,0,1-.23.59.78.78,0,0,1-.58.23h-3.78V358.59H161a.78.78,0,0,1,.58.23.81.81,0,0,1,.23.59v3.4a.91.91,0,0,1-.41.76l-.81.49.87.56a.8.8,0,0,1,.38.73ZM160.75,363V359.5h-2.51v4.13h1.5Zm0,6.21v-4l-1-.67h-1.51v4.64Z"/><path class="cls-1" d="M165,371h-.59a8.28,8.28,0,0,1,0-8.62H165v.05a9.32,9.32,0,0,0-.85,2,9.14,9.14,0,0,0,0,4.41A9.32,9.32,0,0,0,165,371Z"/><path class="cls-1" d="M169,370.06h-.68l-.27-1.7h-1.51l-.27,1.7h-.66v0L167,362.4h.66Zm-1-2.3-.67-4.14-.68,4.14Z"/><path class="cls-1" d="M171.42,366.73a8,8,0,0,1-1.21,4.31h-.57V371a9.32,9.32,0,0,0,.85-2.05,9.48,9.48,0,0,0,0-4.41,9.32,9.32,0,0,0-.85-2v-.05h.57A8,8,0,0,1,171.42,366.73Z"/><path class="cls-1" d="M208.82,370.06h-4.55v-.55l3.51-7.28V359.5h-2.34v2.57h-1v-2.66a.8.8,0,0,1,.22-.59.82.82,0,0,1,.59-.23H208a.77.77,0,0,1,.81.82v2.43a2.35,2.35,0,0,1-.27,1l-3,6.32h3.32Z"/><path class="cls-1" d="M214.39,370.06h-1V363.8l-2.14.06v6.2h-1V358.59h1v4.54l1.15-.15a10,10,0,0,1,1.15-.09.71.71,0,0,1,.82.79Z"/><path class="cls-1" d="M241.63,370.06h-1V358.59h1Z"/><path class="cls-1" d="M247.52,370.06h-1V363.8l-2.15.06v6.2h-1v-7.13h1v.2l1.15-.16c.47-.05.86-.08,1.16-.08a.71.71,0,0,1,.81.79Z"/><path class="cls-1" d="M250.11,371.93a.73.73,0,0,1-.82.83h-1.22v-.86h1.08v-9h1Zm0-10.56h-1v-1.23h1Z"/><path class="cls-1" d="M255.85,370.06h-1v-.2l-1.16.15a9.56,9.56,0,0,1-1.17.09.7.7,0,0,1-.79-.79v-6.38h1v6.26l2.16-.06v-6.2h1Z"/><path class="cls-1" d="M261.17,365.27h-1V363.8l-1.8.06v6.2h-1v-7.13h1v.2l1-.16a8,8,0,0,1,1-.08.71.71,0,0,1,.81.79Z"/><path class="cls-1" d="M263.44,361.37h-1v-1.23h1Zm0,8.69h-1v-7.13h1Z"/><path class="cls-1" d="M269.17,369.23a.73.73,0,0,1-.83.83H265.9a.73.73,0,0,1-.82-.83v-5.47a.73.73,0,0,1,.82-.83h2.44a.73.73,0,0,1,.83.83Zm-1,0v-5.41h-2.15v5.41Z"/><path class="cls-1" d="M274.84,370.06h-1v-.2l-1.16.15a9.56,9.56,0,0,1-1.17.09.7.7,0,0,1-.79-.79v-6.38h1v6.26l2.16-.06v-6.2h1Z"/><path class="cls-1" d="M280.27,369.23a.74.74,0,0,1-.83.83h-2.23a.73.73,0,0,1-.83-.83v-1.62h1v1.61h2v-1.43l-2.55-2.08a1,1,0,0,1-.37-.77v-1.18a.74.74,0,0,1,.83-.83h2.21a.73.73,0,0,1,.82.83v1.42h-.94v-1.41h-2V365l2.57,2.09a.92.92,0,0,1,.36.77Z"/><path class="cls-1" d="M133.7,388.06h-1v-7.95h-.44v0l.64-3.48h.83Z"/><path class="cls-1" d="M140.18,387.24a.77.77,0,0,1-.23.59.78.78,0,0,1-.58.23h-3a.79.79,0,0,1-.82-.82v-2.9h1v2.82h2.54v-3.51l-2-1.52v-.23l2-1.49V377.5h-2.5v2.57h-1v-2.66a.8.8,0,0,1,.22-.59.82.82,0,0,1,.59-.23h2.92a.79.79,0,0,1,.82.82v2.79a1,1,0,0,1-.44.85l-1.37,1,1.38,1a1,1,0,0,1,.44.88Z"/><path class="cls-1" d="M146.61,387.24a.81.81,0,0,1-.23.59.85.85,0,0,1-.6.23h-3a.79.79,0,0,1-.81-.82v-9.83a.79.79,0,0,1,.81-.82h3a.85.85,0,0,1,.6.23.81.81,0,0,1,.23.59Zm-1-.08V377.5H143v9.66Z"/><path class="cls-1" d="M155.31,388.06h-1v-.2q-1.57.24-1.74.24a1.28,1.28,0,0,1-1-.42,1.48,1.48,0,0,1-.38-1.05v-4.17a1.49,1.49,0,0,1,1.51-1.53h1.61v-4.34h1Zm-1-.89v-5.38H153a.72.72,0,0,0-.81.83v3.8a.72.72,0,0,0,.81.82Z"/><path class="cls-1" d="M161.63,387.24a.79.79,0,0,1-.82.82H157V376.59h3.75a.79.79,0,0,1,.82.82v3.4a.91.91,0,0,1-.41.76l-.81.49.87.56a.8.8,0,0,1,.38.73ZM160.57,381V377.5h-2.52v4.13h1.5Zm0,6.21v-4l-1-.67h-1.52v4.64Z"/><path class="cls-1" d="M164.8,389h-.59a8.28,8.28,0,0,1,0-8.62h.59v.05a8.85,8.85,0,0,0-.85,2,9.14,9.14,0,0,0,0,4.41,8.85,8.85,0,0,0,.85,2.05Z"/><path class="cls-1" d="M168.81,388.06h-.67l-.27-1.7h-1.52l-.27,1.7h-.65v0l1.36-7.64h.67Zm-1-2.3-.67-4.14-.67,4.14Z"/><path class="cls-1" d="M171.24,384.73A8,8,0,0,1,170,389h-.58V389a8.85,8.85,0,0,0,.85-2.05,9.14,9.14,0,0,0,0-4.41,8.85,8.85,0,0,0-.85-2v-.05H170A8,8,0,0,1,171.24,384.73Z"/><path class="cls-1" d="M207.76,388.06H204v-.47l2.79-8.69h-2.52v-.78h3.54v.46l-2.79,8.7h2.79Z"/><path class="cls-1" d="M212.17,388.06h-3.26v-9.94h3.22v.78h-2.34v3.71h2.13v.79h-2.13v3.88h2.38Z"/><path class="cls-1" d="M217.78,388.06h-.93L215,382.74l.12-.18h1.58V378.9h-2.27v9.16h-.88v-9.94h3.33a.69.69,0,0,1,.5.2.69.69,0,0,1,.2.51v3.77c0,.48-.32.71-1,.71h-.54Z"/><path class="cls-1" d="M223.29,387.35a.66.66,0,0,1-.2.51.69.69,0,0,1-.51.2H219.8a.71.71,0,0,1-.51-.2.69.69,0,0,1-.19-.51v-8.52a.69.69,0,0,1,.19-.51.71.71,0,0,1,.51-.2h2.78a.69.69,0,0,1,.51.2.66.66,0,0,1,.2.51Zm-.88-.07V378.9H220v8.38Z"/><path class="cls-1" d="M245.28,386a2,2,0,0,1-.6,1.49,2.07,2.07,0,0,1-1.5.59h-2.62V376.59h2.62a2.07,2.07,0,0,1,1.51.59,2,2,0,0,1,.59,1.49Zm-1-.1v-7.12A1.19,1.19,0,0,0,243,377.5h-1.42v9.66h1.36a1.39,1.39,0,0,0,1-.34A1.21,1.21,0,0,0,244.26,385.88Z"/><path class="cls-1" d="M251,388.06h-1v-.2l-1.16.15a9.71,9.71,0,0,1-1.15.09.7.7,0,0,1-.8-.79v-2.6a.73.73,0,0,1,.83-.82H250v-2.15h-2.09V383H247v-1.2a.73.73,0,0,1,.82-.83h2.35a.73.73,0,0,1,.82.83Zm-.95-.89v-2.52h-2.17v2.57Z"/><path class="cls-1" d="M256.67,388.06h-1V381.8l-2.15.06v6.2h-1v-7.13h1v.2l1.15-.16a11.47,11.47,0,0,1,1.16-.08.71.71,0,0,1,.81.79Z"/><path class="cls-1" d="M262.29,389.93a.73.73,0,0,1-.82.83h-2.32q-.84,0-.84-1.05c0-.08,0-.2,0-.37s0-.28,0-.35h1v.94h2v-1.87h-1.61a1.49,1.49,0,0,1-1.51-1.53v-4.17a1.48,1.48,0,0,1,.38-1.05,1.28,1.28,0,0,1,1-.42q.17,0,1.74.24v-.2h1Zm-1-2.73v-5.38l-1.35-.08a.72.72,0,0,0-.81.82v3.82a.72.72,0,0,0,.81.82Z"/><path class="cls-1" d="M267.88,387.23a.73.73,0,0,1-.82.83h-2.34a.73.73,0,0,1-.82-.83v-5.47a.73.73,0,0,1,.82-.83h2.34a.73.73,0,0,1,.82.83v2.56l-.33.35h-2.71v2.57h2.1v-1.3h.94Zm-.94-3.34v-2.15h-2.1v2.15Z"/><path class="cls-1" d="M273.22,383.27h-1V381.8l-1.79.06v6.2h-1v-7.13h1v.2l1-.16a8.13,8.13,0,0,1,1-.08.7.7,0,0,1,.8.79Z"/><path class="cls-1" d="M278.55,387.23a.73.73,0,0,1-.82.83h-2.45a.73.73,0,0,1-.82-.83v-5.47a.73.73,0,0,1,.82-.83h2.45a.73.73,0,0,1,.82.83Zm-1,0v-5.41h-2.15v5.41Z"/><path class="cls-1" d="M284.22,388.06h-1v-.2l-1.16.15a9.56,9.56,0,0,1-1.17.09.7.7,0,0,1-.79-.79v-6.38h1v6.26l2.16-.06v-6.2h1Z"/><path class="cls-1" d="M289.65,387.23a.74.74,0,0,1-.83.83h-2.23a.74.74,0,0,1-.83-.83v-1.62h1v1.61h2v-1.43l-2.55-2.08a1,1,0,0,1-.36-.77v-1.18a.73.73,0,0,1,.82-.83h2.21a.74.74,0,0,1,.83.83v1.42h-.95v-1.41h-2V383l2.57,2.09a.92.92,0,0,1,.36.77Z"/></g><g id="Text-2" data-name="Text"><path class="cls-1" d="M94,275.59V250h3.61l8.2,13a73.21,73.21,0,0,1,4.6,8.33l.08,0c-.31-3.42-.38-6.54-.38-10.53V250h3.11v25.61h-3.34l-8.13-13A79.67,79.67,0,0,1,97,254l-.11,0c.19,3.23.26,6.31.26,10.56v10.95Z"/><path class="cls-1" d="M135.56,266.24c0,6.8-4.71,9.76-9.16,9.76-5,0-8.81-3.64-8.81-9.46,0-6.15,4-9.76,9.11-9.76C132,256.78,135.56,260.62,135.56,266.24Zm-14.59.19c0,4,2.31,7.07,5.58,7.07s5.59-3,5.59-7.15c0-3.11-1.56-7.06-5.51-7.06S121,262.93,121,266.43Z"/><path class="cls-1" d="M143.5,252a2.07,2.07,0,0,1-4.14,0,2,2,0,0,1,2.09-2.09A2,2,0,0,1,143.5,252Zm-3.72,23.56V257.2h3.34v18.39Z"/><path class="cls-1" d="M148.21,272.17a8.84,8.84,0,0,0,4.41,1.33c2.43,0,3.57-1.22,3.57-2.74s-.95-2.47-3.42-3.38c-3.3-1.18-4.86-3-4.86-5.21,0-3,2.39-5.39,6.34-5.39a9.18,9.18,0,0,1,4.53,1.14l-.84,2.43a7.11,7.11,0,0,0-3.76-1.06c-2,0-3.08,1.14-3.08,2.5,0,1.52,1.1,2.21,3.5,3.12,3.19,1.22,4.82,2.81,4.82,5.55,0,3.23-2.51,5.51-6.88,5.51a10.46,10.46,0,0,1-5.16-1.26Z"/><path class="cls-1" d="M165.58,267c.07,4.52,3,6.38,6.31,6.38a12.15,12.15,0,0,0,5.09-.95l.57,2.4a14.93,14.93,0,0,1-6.12,1.14c-5.66,0-9-3.73-9-9.27s3.26-9.92,8.62-9.92c6,0,7.6,5.28,7.6,8.66a14.54,14.54,0,0,1-.11,1.56Zm9.8-2.39c0-2.13-.87-5.44-4.63-5.44-3.39,0-4.87,3.12-5.13,5.44Z"/><path class="cls-1" d="M204.18,263.58h-10v9.23h11.09v2.78h-14.4V250h13.83v2.77H194.23v8.09h10Z"/><path class="cls-1" d="M211.06,257.2l2.62,3.95c.69,1,1.26,2,1.87,3h.11c.61-1.1,1.22-2,1.82-3l2.59-3.91h3.61l-6.27,8.89,6.46,9.5h-3.8l-2.7-4.15c-.72-1.06-1.33-2.09-2-3.19h-.07c-.61,1.1-1.26,2.09-1.94,3.19l-2.66,4.15H207l6.54-9.39-6.23-9Z"/><path class="cls-1" d="M227.1,263.2c0-2.36-.08-4.26-.15-6h3l.15,3.15h.08a7.22,7.22,0,0,1,6.53-3.57c4.45,0,7.79,3.76,7.79,9.35,0,6.61-4,9.87-8.36,9.87a6.45,6.45,0,0,1-5.66-2.88h-.08v10h-3.3Zm3.3,4.9a7.25,7.25,0,0,0,.16,1.37,5.14,5.14,0,0,0,5,3.91c3.54,0,5.59-2.88,5.59-7.1,0-3.69-1.94-6.84-5.47-6.84a5.34,5.34,0,0,0-5.06,4.14,5.61,5.61,0,0,0-.23,1.37Z"/><path class="cls-1" d="M265.36,266.24c0,6.8-4.71,9.76-9.16,9.76-5,0-8.81-3.64-8.81-9.46,0-6.15,4-9.76,9.12-9.76C261.79,256.78,265.36,260.62,265.36,266.24Zm-14.59.19c0,4,2.32,7.07,5.59,7.07s5.58-3,5.58-7.15c0-3.11-1.56-7.06-5.51-7.06S250.77,262.93,250.77,266.43Z"/><path class="cls-1" d="M269.13,272.17a8.77,8.77,0,0,0,4.4,1.33c2.43,0,3.58-1.22,3.58-2.74s-1-2.47-3.42-3.38c-3.31-1.18-4.87-3-4.87-5.21,0-3,2.4-5.39,6.35-5.39a9.17,9.17,0,0,1,4.52,1.14l-.84,2.43a7.11,7.11,0,0,0-3.76-1.06c-2,0-3.08,1.14-3.08,2.5,0,1.52,1.1,2.21,3.5,3.12,3.19,1.22,4.82,2.81,4.82,5.55,0,3.23-2.5,5.51-6.87,5.51a10.47,10.47,0,0,1-5.17-1.26Z"/><path class="cls-1" d="M300,270.57c0,1.9,0,3.57.15,5h-3l-.19-3h-.08a6.9,6.9,0,0,1-6.08,3.42c-2.89,0-6.34-1.59-6.34-8.05V257.2h3.34v10.18c0,3.5,1.06,5.85,4.1,5.85a4.69,4.69,0,0,0,4.71-4.75V257.2H300Z"/><path class="cls-1" d="M305.57,262.93c0-2.16,0-4-.15-5.73h2.92l.11,3.61h.16a5.51,5.51,0,0,1,5.09-4,3.93,3.93,0,0,1,.95.11v3.16a4.81,4.81,0,0,0-1.14-.12c-2.36,0-4,1.79-4.48,4.3a8.8,8.8,0,0,0-.16,1.55v9.81h-3.3Z"/><path class="cls-1" d="M319.48,267c.07,4.52,3,6.38,6.3,6.38a12.08,12.08,0,0,0,5.09-.95l.57,2.4a14.88,14.88,0,0,1-6.11,1.14c-5.67,0-9.05-3.73-9.05-9.27s3.27-9.92,8.63-9.92c6,0,7.6,5.28,7.6,8.66a11.91,11.91,0,0,1-.12,1.56Zm9.8-2.39c0-2.13-.88-5.44-4.64-5.44-3.38,0-4.86,3.12-5.13,5.44Z"/><path class="cls-1" d="M199.05,290.29v17.55c0,1.29,0,2.76.12,3.75H196.8l-.12-2.52h-.06a5.37,5.37,0,0,1-5,2.85c-3.51,0-6.21-3-6.21-7.38,0-4.83,3-7.8,6.51-7.8a4.85,4.85,0,0,1,4.38,2.22h.06v-8.67ZM196.41,303a4.66,4.66,0,0,0-.12-1.11,3.88,3.88,0,0,0-3.81-3.06c-2.73,0-4.35,2.4-4.35,5.61,0,2.94,1.44,5.37,4.29,5.37a4,4,0,0,0,3.87-3.15,4.59,4.59,0,0,0,.12-1.14Z"/><path class="cls-1" d="M203.52,291.64a25.29,25.29,0,0,1,4.77-.42c2.61,0,4.29.45,5.55,1.47a4.24,4.24,0,0,1,1.68,3.57,4.8,4.8,0,0,1-3.42,4.44v.06a5.21,5.21,0,0,1,4.17,5.07,5.45,5.45,0,0,1-1.71,4.05c-1.41,1.29-3.69,1.89-7,1.89a30.51,30.51,0,0,1-4-.24Zm2.61,8.28h2.37c2.76,0,4.38-1.44,4.38-3.39,0-2.37-1.8-3.3-4.44-3.3a11.2,11.2,0,0,0-2.31.18Zm0,9.69a14,14,0,0,0,2.19.12c2.7,0,5.19-1,5.19-3.93,0-2.76-2.37-3.9-5.22-3.9h-2.16Z"/><path class="cls-1" d="M222.78,297.7a13.19,13.19,0,0,0-2.52,8.18,13.49,13.49,0,0,0,2.52,8.13H221.4a12.94,12.94,0,0,1-2.62-8.13,13.2,13.2,0,0,1,2.62-8.18Z"/><path class="cls-1" d="M226.66,307.34l-1.4,4.25h-1.8L228,298.1h2.1l4.6,13.49h-1.86l-1.44-4.25Zm4.42-1.36-1.32-3.88c-.3-.88-.5-1.68-.7-2.46h0c-.2.8-.42,1.62-.68,2.44L227,306Z"/><path class="cls-1" d="M235.42,314a13.55,13.55,0,0,0,2.52-8.19,13.26,13.26,0,0,0-2.52-8.12h1.36a12.74,12.74,0,0,1,2.62,8.14,13,13,0,0,1-2.62,8.17Z"/><path class="cls-14" d="M124.35,241.51a.87.87,0,0,1-.27.66.88.88,0,0,1-.67.26h-3.34a.87.87,0,0,1-.67-.26.9.9,0,0,1-.26-.66V230.36a.89.89,0,0,1,.93-.92h3.34a.92.92,0,0,1,.67.26.87.87,0,0,1,.27.66v3h-1.16v-2.92H120.3v10.95h2.89v-3.19h1.16Z"/><path class="cls-14" d="M130.46,237h-1.09v-1.67l-2,.07v7h-1.11v-8.07h1.11v.22l1.1-.18a8.72,8.72,0,0,1,1.1-.1.81.81,0,0,1,.92.91Z"/><path class="cls-14" d="M136.43,242.43h-1.09v-.22l-1.31.17a10.68,10.68,0,0,1-1.31.1.79.79,0,0,1-.9-.89v-3a.83.83,0,0,1,.94-.93h2.6v-2.43H133v1.37h-1.07v-1.36a.82.82,0,0,1,.93-.93h2.66a.82.82,0,0,1,.93.93Zm-1.07-1v-2.86h-2.47v2.91Z"/><path class="cls-14" d="M141.29,230.41h-1.56v4h1.38v1h-1.38v7.1h-1.09v-7.1h-.94v-1h.94v-4a.83.83,0,0,1,.93-.94h1.72Z"/><path class="cls-14" d="M145.18,242.43h-1.57a.83.83,0,0,1-.93-.94v-6.16h-1v-1h1v-2.52h1.09v2.52h1.41v1h-1.41v6.13h1.41Z"/><path class="cls-14" d="M151.11,241.49a.83.83,0,0,1-.93.94h-2.66a.83.83,0,0,1-.93-.94v-6.2a.82.82,0,0,1,.93-.93h2.66a.82.82,0,0,1,.93.93v2.91l-.37.39h-3.07v2.92H150V240h1.07ZM150,237.71v-2.43h-2.37v2.43Z"/><path class="cls-14" d="M157.53,242.43h-1.1v-.22c-1.18.18-1.84.27-2,.27a1.43,1.43,0,0,1-1.13-.48,1.68,1.68,0,0,1-.44-1.19v-4.72a1.71,1.71,0,0,1,.49-1.24,1.67,1.67,0,0,1,1.23-.49h1.82v-4.92h1.1Zm-1.1-1v-6.1H154.9a.81.81,0,0,0-.91.93v4.32a.81.81,0,0,0,.91.93Z"/><path class="cls-14" d="M163.84,232.59h-1.12v-1.4h1.12Zm0,9.84h-1.09v-8.07h1.09Z"/><path class="cls-14" d="M170.34,242.43h-1.1v-7.09l-2.43.07v7H165.7v-8.07h1.11v.22l1.3-.18a12.54,12.54,0,0,1,1.31-.1.81.81,0,0,1,.92.91Z"/><path class="cls-14" d="M180.79,241.51a.86.86,0,0,1-.26.66.9.9,0,0,1-.67.26h-3.35a.89.89,0,0,1-.92-.92V230.36a.86.86,0,0,1,.26-.66.9.9,0,0,1,.66-.26h3.35a.94.94,0,0,1,.67.26.86.86,0,0,1,.26.66v3h-1.16v-2.92h-2.89v10.95h2.89v-3.19h1.16Z"/><path class="cls-14" d="M187.32,241.49a.83.83,0,0,1-.94.94h-2.77a.83.83,0,0,1-.93-.94v-6.2a.82.82,0,0,1,.93-.93h2.77a.83.83,0,0,1,.94.93Zm-1.11,0v-6.13h-2.43v6.13Z"/><path class="cls-14" d="M193.76,242.43h-1.1v-7.09l-2.44.07v7h-1.1v-8.07h1.1v.22l1.31-.18a12.35,12.35,0,0,1,1.31-.1.81.81,0,0,1,.92.91Z"/><path class="cls-14" d="M200.18,242.43h-1.1v-7.09l-2.43.07v7h-1.11v-8.07h1.11v.22l1.3-.18a12.54,12.54,0,0,1,1.31-.1.81.81,0,0,1,.92.91Z"/><path class="cls-14" d="M206.48,241.49a.83.83,0,0,1-.93.94H202.9a.83.83,0,0,1-.93-.94v-6.2a.82.82,0,0,1,.93-.93h2.65a.82.82,0,0,1,.93.93v2.91l-.37.39H203v2.92h2.37V240h1.07Zm-1.07-3.78v-2.43H203v2.43Z"/><path class="cls-14" d="M212.79,241.49a.83.83,0,0,1-.93.94h-2.62a.83.83,0,0,1-.93-.94v-6.2a.82.82,0,0,1,.93-.93h2.62a.82.82,0,0,1,.93.93v1.61h-1.08v-1.57h-2.3v6.13h2.3v-1.8h1.08Z"/><path class="cls-14" d="M217.49,242.43h-1.57a.83.83,0,0,1-.93-.94v-6.16h-1v-1h1v-2.52h1.09v2.52h1.41v1h-1.41v6.13h1.41Z"/><path class="cls-14" d="M223.42,241.49a.83.83,0,0,1-.93.94h-2.66a.83.83,0,0,1-.93-.94v-6.2a.82.82,0,0,1,.93-.93h2.66a.82.82,0,0,1,.93.93v2.91l-.38.39H220v2.92h2.38V240h1.07Zm-1.07-3.78v-2.43H220v2.43Z"/><path class="cls-14" d="M229.83,242.43h-1.09v-.22c-1.19.18-1.84.27-2,.27a1.47,1.47,0,0,1-1.14-.48,1.72,1.72,0,0,1-.43-1.19v-4.72a1.71,1.71,0,0,1,.49-1.24,1.67,1.67,0,0,1,1.23-.49h1.82v-4.92h1.09Zm-1.09-1v-6.1h-1.53a.81.81,0,0,0-.91.93v4.32a.81.81,0,0,0,.91.93Z"/><path class="cls-14" d="M239.38,242.43h-4.27v-13h4.22v1h-3.06v4.85h2.79v1h-2.79v5.06h3.11Z"/><path class="cls-14" d="M245.69,242.43h-1.1v-7.09l-2.44.07v7h-1.1v-8.07h1.1v.22l1.31-.18a12.54,12.54,0,0,1,1.31-.1.81.81,0,0,1,.92.91Z"/><path class="cls-14" d="M252,234.36l-2,8.09h-1l-2-8.09h1.14l1.38,6.35,1.39-6.35Z"/><path class="cls-14" d="M254.55,232.59h-1.12v-1.4h1.12Zm0,9.84h-1.09v-8.07h1.09Z"/><path class="cls-14" d="M260.63,237h-1.09v-1.67l-2,.07v7H256.4v-8.07h1.11v.22l1.1-.18a8.85,8.85,0,0,1,1.11-.1.81.81,0,0,1,.91.91Z"/><path class="cls-14" d="M266.67,241.49a.83.83,0,0,1-.93.94H263a.83.83,0,0,1-.93-.94v-6.2a.82.82,0,0,1,.93-.93h2.78a.82.82,0,0,1,.93.93Zm-1.1,0v-6.13h-2.43v6.13Z"/><path class="cls-14" d="M273.11,242.43H272v-7.09l-2.43.07v7h-1.11v-8.07h1.11v.22c.43-.06.87-.11,1.3-.18a12.54,12.54,0,0,1,1.31-.1.81.81,0,0,1,.92.91Z"/><path class="cls-14" d="M283,242.43h-1.11v-7.09l-2.4.07v7h-1.1v-7.09l-2.41.07v7h-1.1v-8.07H276v.22c.44-.06.87-.11,1.3-.18a12.18,12.18,0,0,1,1.3-.1.91.91,0,0,1,.75.31l1.39-.19a11.17,11.17,0,0,1,1.36-.12.81.81,0,0,1,.92.91Z"/><path class="cls-14" d="M289.33,241.49a.83.83,0,0,1-.93.94h-2.66a.83.83,0,0,1-.93-.94v-6.2a.82.82,0,0,1,.93-.93h2.66a.82.82,0,0,1,.93.93v2.91l-.38.39h-3.07v2.92h2.38V240h1.07Zm-1.07-3.78v-2.43h-2.38v2.43Z"/><path class="cls-14" d="M295.79,242.43h-1.1v-7.09l-2.43.07v7h-1.11v-8.07h1.11v.22l1.3-.18a12.54,12.54,0,0,1,1.31-.1.81.81,0,0,1,.92.91Z"/><path class="cls-14" d="M300.48,242.43h-1.57a.83.83,0,0,1-.93-.94v-6.16h-1v-1h1v-2.52h1.09v2.52h1.41v1h-1.41v6.13h1.41Z"/><path class="cls-14" d="M306.24,241.49a.83.83,0,0,1-.93.94h-2.54a.83.83,0,0,1-.93-.94v-1.83h1.08v1.82h2.24v-1.61l-2.89-2.37a1,1,0,0,1-.42-.86v-1.35a.83.83,0,0,1,.94-.93h2.5a.83.83,0,0,1,.94.93v1.61h-1.07v-1.59h-2.24v1.41l2.92,2.37a1.06,1.06,0,0,1,.4.88Z"/></g><g id="Layer_9" data-name="Layer 9"><path class="cls-1" d="M95.76,187.59l-3.34,11.1-.82-.13.12-8.73c0-.15,0-.37.08-.67,0,.16-.07.38-.13.66l-2.59,8.34-.81-.12.25-11.6,1,.16-.33,8.32c0,.18-.06.45-.1.81,0-.18.08-.45.16-.8l2.46-8,.86.13-.12,8.35c0,.19-.06.46-.1.82,0-.18.08-.45.16-.8l2.26-8Z"/><path class="cls-1" d="M99.24,199.74l-1-.15,1-6.18-2.12-.27-1,6.12-1-.16L97,187.78l1,.15-.71,4.48,1.16,0a9.81,9.81,0,0,1,1.16.08.71.71,0,0,1,.67.92Z"/><path class="cls-1" d="M101.8,200.15l-1-.15,1.12-7,.94.15Zm1.37-8.58-1-.15.19-1.22,1,.16Z"/><path class="cls-1" d="M107.35,200.19a.72.72,0,0,1-.94.69l-2.21-.35a.74.74,0,0,1-.69-.95l.26-1.6.94.15-.25,1.59,2,.31.22-1.41-2.19-2.46a.93.93,0,0,1-.24-.81l.18-1.17a.74.74,0,0,1,1-.69l2.18.35a.72.72,0,0,1,.68.94l-.22,1.41L107,196l.22-1.39-2-.31-.19,1.23,2.21,2.47a.92.92,0,0,1,.23.82Z"/><path class="cls-1" d="M113,200.38a1.48,1.48,0,0,1-.59,1,1.43,1.43,0,0,1-1.14.26l-1.59-.25-.42,2.67-1-.15,1.53-9.71,1,.15,0,.2,1.16,0a9.61,9.61,0,0,1,1.15.08.72.72,0,0,1,.68.92Zm-.94-.3.72-4.52-2.13-.28-.83,5.28,1.33.21A.71.71,0,0,0,112.09,200.08Z"/><path class="cls-1" d="M118.4,201.94a.73.73,0,0,1-.94.69l-2.31-.37a.73.73,0,0,1-.69-.94l.86-5.41a.74.74,0,0,1,.94-.69l2.31.37a.74.74,0,0,1,.69.95l-.41,2.53-.37.29-2.68-.43-.4,2.55,2.06.33.21-1.29.93.15Zm-.41-3.45.33-2.12-2.06-.32-.34,2.12Z"/><path class="cls-1" d="M124.29,198.87l-1-.15.23-1.45-1.78-.23-1,6.12-1-.15,1.12-7,1,.15,0,.2h1a5.33,5.33,0,0,1,1,.07.7.7,0,0,1,.67.91Z"/><path class="cls-1" d="M125.77,204l-1-.15,1.12-7,1,.15Zm1.38-8.58-1-.16.19-1.21,1,.15Z"/><path class="cls-1" d="M131.45,204.85l-1-.16,1-6.17-2.13-.28-1,6.12-1-.16,1.11-7,1,.15,0,.19,1.16,0a10,10,0,0,1,1.16.1.71.71,0,0,1,.68.91Z"/><path class="cls-1" d="M136.71,207.58a.73.73,0,0,1-.94.69l-2.29-.37c-.55-.08-.78-.47-.67-1.16,0-.09,0-.21.07-.37s.06-.27.07-.35l1,.15-.15.94,2,.32.29-1.86-1.58-.25a1.43,1.43,0,0,1-1-.6,1.52,1.52,0,0,1-.25-1.15l.65-4.11a1.54,1.54,0,0,1,.54-1,1.31,1.31,0,0,1,1.06-.26q.16,0,1.68.51l0-.19,1,.15Zm-.52-2.85.84-5.32-1.32-.28a.72.72,0,0,0-.93.68l-.59,3.77a.72.72,0,0,0,.66.94Z"/><path class="cls-1" d="M102,161.92a.79.79,0,0,1-1.11.35l-2.63-1.34a.77.77,0,0,1-.35-1.09l4.46-8.77a.84.84,0,0,1,.47-.42.8.8,0,0,1,.62.07l2.63,1.34a.78.78,0,0,1,.37,1.1l-1.21,2.37-.91-.46,1.17-2.3-2.27-1.16-4.39,8.61,2.27,1.16,1.28-2.51.92.46Z"/><path class="cls-1" d="M107.08,164.52a.73.73,0,0,1-1.11.36l-2.18-1.11a.72.72,0,0,1-.35-1.11l2.48-4.87a.73.73,0,0,1,1.11-.37l2.18,1.11a.74.74,0,0,1,.36,1.12Zm-.85-.47,2.46-4.82-1.92-1-2.45,4.82Z"/><path class="cls-1" d="M114.51,169.23l-.87-.44,2.84-5.57-1.92-.92-2.81,5.53-.87-.44,2.84-5.58-1.92-.91L109,166.42l-.87-.44,3.24-6.35.87.44-.09.18,1.08.38c.44.16.8.31,1.07.44a.8.8,0,0,1,.46.55l1.17.4a8.45,8.45,0,0,1,1.12.46.7.7,0,0,1,.36,1.07Z"/><path class="cls-1" d="M120.26,170.45a1.53,1.53,0,0,1-.88.78,1.5,1.5,0,0,1-1.17-.11l-1.43-.73-1.22,2.41-.87-.44,4.46-8.76.87.44-.09.18,1.1.39a11.27,11.27,0,0,1,1.06.44.71.71,0,0,1,.37,1.08Zm-.8-.58,2.07-4.08-1.93-.92-2.43,4.76,1.2.61A.72.72,0,0,0,119.46,169.87Z"/><path class="cls-1" d="M124.59,174.37l-.86-.44.09-.17-1.1-.39a8.89,8.89,0,0,1-1.08-.45.71.71,0,0,1-.35-1.07l2.9-5.68.85.43-2.84,5.58,2,.93,2.81-5.52.85.43Z"/><path class="cls-1" d="M128.29,176.26l-1.23-.63a.73.73,0,0,1-.36-1.11l2.47-4.85-.76-.39.39-.76.76.39,1-2,.85.43-1,2,1.11.57-.38.76L130,170.1l-2.46,4.83,1.11.56Z"/><path class="cls-1" d="M133.32,177.89a.72.72,0,0,1-1.1.37l-2.09-1.07a.73.73,0,0,1-.36-1.11l2.49-4.87a.73.73,0,0,1,1.1-.37l2.09,1.07a.73.73,0,0,1,.36,1.11l-1.17,2.28-.45.16-2.41-1.23-1.17,2.3,1.87.95.59-1.17.84.43Zm.68-3.4,1-1.91-1.86-1-1,1.92Z"/><path class="cls-1" d="M139.88,176.79l-.86-.43.67-1.31-1.62-.77-2.82,5.52-.87-.44,3.24-6.35.87.44-.09.18.94.31a6,6,0,0,1,.9.36.71.71,0,0,1,.36,1.08Z"/><path class="cls-1" d="M145.8,185.18l-.9-.46,2.5-4.91-2.46-1.25-2.5,4.91-.91-.47,5.2-10.21.91.46-2.29,4.49,2.46,1.26,2.29-4.49.91.46Z"/><path class="cls-1" d="M151,187.81l-.86-.43.09-.18-1.11-.39a9.36,9.36,0,0,1-1.07-.45.71.71,0,0,1-.35-1.07l2.9-5.68.85.43-2.84,5.58,1.95.93,2.82-5.52.85.43Z"/><path class="cls-1" d="M158.76,191.78l-.86-.44,2.84-5.57-1.92-.91L156,190.38l-.86-.44,2.84-5.57-1.92-.92L153.25,189l-.87-.44,3.24-6.35.87.45-.09.17,1.08.38a9.36,9.36,0,0,1,1.07.45.76.76,0,0,1,.46.54l1.17.4a9.07,9.07,0,0,1,1.12.46.71.71,0,0,1,.36,1.08Z"/><path class="cls-1" d="M123.4,131.08l-.06-.06-.1-1a.69.69,0,0,1-.95-.1L120,127.67a.79.79,0,0,1,0-1.15l6.95-7a.79.79,0,0,1,1.15,0l2.28,2.28a.75.75,0,0,1,.25.57.79.79,0,0,1-.25.58L124,129.37l.11,1Zm-.63-1.92.32-.32-.14-1.57.7-.71.07.07.14,1.45,5.75-5.75-2-2-6.83,6.84Z"/><path class="cls-1" d="M127,134.67l-.68-.68.14-.14-.93-.71c-.37-.29-.67-.55-.89-.76a.7.7,0,0,1,0-1.12l4.52-4.51.67.67-4.42,4.43,1.57,1.49,4.38-4.39.68.68Z"/><path class="cls-1" d="M128.85,136.51l-.67-.67,5-5,.67.68Zm6.16-6.13-.7-.7.87-.87.7.7Z"/><path class="cls-1" d="M133.43,139.92a.73.73,0,0,1-1.17,0l-1.65-1.66a.72.72,0,0,1,0-1.16l3.87-3.87a.72.72,0,0,1,1.16,0l1.66,1.65a.73.73,0,0,1,0,1.17l-1.82,1.81H135L133.09,136l-1.82,1.83,1.48,1.48.92-.92.67.67Zm1.69-3,1.52-1.52-1.48-1.48-1.52,1.52Z"/><path class="cls-1" d="M135.79,143.45l-1-1a.73.73,0,0,1,0-1.17l3.85-3.85-.61-.6.61-.61.6.61,1.57-1.57.68.68L140,137.53l.88.89-.6.6-.88-.88L135.52,142l.88.88Z"/><path class="cls-1" d="M142.83,149.34a.79.79,0,0,1-1.15,0l-2.27-2.27a.79.79,0,0,1,0-1.15l7-7a.85.85,0,0,1,.58-.25.81.81,0,0,1,.57.25l2.27,2.27a.8.8,0,0,1,.26.58.79.79,0,0,1-.25.58Zm-.65-.78,6.83-6.83-2-2-6.83,6.83Z"/><path class="cls-1" d="M152.87,145.54l-1-1L149.44,147l.86.86-.6.61-.86-.86-4.44,4.43-.68-.68,4.44-4.43-.59-.59.61-.6.58.58,2.48-2.48a.73.73,0,0,1,1.17,0l1.07,1.07Z"/><path class="cls-1" d="M155.4,148.06l-1-1L152,149.55l.86.85-.6.61-.86-.86-4.44,4.43-.67-.67,4.43-4.44-.59-.58.61-.61.58.59,2.49-2.48a.72.72,0,0,1,1.16,0l1.07,1.07Z"/><path class="cls-1" d="M149.23,156.89l-.67-.67,5-5,.68.67Zm6.16-6.13-.7-.7.87-.87.7.7Z"/><path class="cls-1" d="M153.79,160.28a.73.73,0,0,1-1.17,0L151,158.64a.73.73,0,0,1,0-1.16l3.87-3.87a.73.73,0,0,1,1.16,0l1.64,1.64a.73.73,0,0,1,0,1.17l-1,1-.68-.68,1-1-1.43-1.43-3.83,3.83,1.43,1.43,1.12-1.13.68.68Z"/><path class="cls-1" d="M157.72,164.21a.73.73,0,0,1-1.16,0l-1.66-1.66a.73.73,0,0,1,0-1.17l3.87-3.86a.73.73,0,0,1,1.17,0l1.66,1.66a.73.73,0,0,1,0,1.16l-1.81,1.82h-.48l-1.91-1.92-1.83,1.82,1.48,1.48.93-.92.66.67Zm1.7-3,1.51-1.51-1.48-1.49-1.52,1.52Z"/><path class="cls-1" d="M227.14,144.11l-.16,1-5.44-.87-.43,2.73,5.44.86-.16,1-11.32-1.79.16-1,5,.79.43-2.73-5-.79.16-1Z"/><path class="cls-1" d="M227.22,138.35a.74.74,0,0,1,.69.94l-.37,2.32a.73.73,0,0,1-.95.68l-5.4-.86a.72.72,0,0,1-.69-.94l.37-2.31a.72.72,0,0,1,.94-.68l2.53.4.29.38-.42,2.67,2.55.41.32-2.07-1.29-.2.15-.94Zm-3.45.41-2.12-.33-.33,2.07,2.12.33Z"/><path class="cls-1" d="M228.92,132.91l-.15,1-.2,0,0,1.17c0,.48,0,.86-.09,1.15a.71.71,0,0,1-.91.66L225,136.4a.73.73,0,0,1-.68-.94l.36-2.27-2.12-.33-.33,2.07,1.2.19-.14.93-1.19-.19a.73.73,0,0,1-.69-.94l.37-2.31a.73.73,0,0,1,.95-.68Zm-1,.8-2.49-.4-.34,2.15,2.54.4Z"/><path class="cls-1" d="M222.76,126.26l6.77,2.86-.14.87-7.33.64.16-1,5.73-.32-5.35-2.09Z"/><path class="cls-1" d="M223.57,121.11l6.71,2.8,2.62,1.14-.15.94-2.62-1.14-7.25.63.15-1,5.74-.32-5.35-2.09Z"/><path class="cls-1" d="M221.46,112.48l-.28,1.75,10.43,1.65-.16,1L221,115.24l-.28,1.76-.89-.14.72-4.52Z"/><path class="cls-1" d="M227.92,108.64l-.15,1-1.46-.23-.22,1.78,6.12,1-.15,1L225,112l.15-1,.2,0v-1a6.56,6.56,0,0,1,.06-1,.72.72,0,0,1,.92-.67Z"/><path class="cls-1" d="M233.46,104.19l-.14.94-.2,0,0,1.17c0,.48-.05.86-.09,1.15a.7.7,0,0,1-.91.66l-2.57-.4a.73.73,0,0,1-.68-1l.36-2.26-2.12-.34-.33,2.07,1.2.19-.14.93-1.19-.18a.74.74,0,0,1-.69-.94l.37-2.32a.72.72,0,0,1,.94-.68Zm-1,.79-2.49-.39-.34,2.14,2.53.41Z"/><path class="cls-1" d="M223.66,98.29l-.21,1.36,3.43.54.19-1.2.85.14-.19,1.2,6.19,1-.15.94-6.19-1-.13.82-.85-.13.13-.82-3.46-.55a.73.73,0,0,1-.69-.94l.24-1.5Z"/><path class="cls-1" d="M224.22,94.76,224,96.12l3.44.55.19-1.2.85.13-.19,1.2,6.19,1-.15,1-6.19-1-.13.82-.85-.14.13-.81-3.46-.55a.73.73,0,0,1-.69-.94l.23-1.5Z"/><path class="cls-1" d="M226.41,93.18l-.15,1L225,94l.16-1ZM235,94.56l-.15,1-7-1.12.15-1Z"/><path class="cls-1" d="M235.05,88.89a.72.72,0,0,1,.69.94l-.36,2.28a.73.73,0,0,1-.95.68l-5.4-.85a.73.73,0,0,1-.69-.94l.36-2.29a.73.73,0,0,1,1-.68l1.4.22-.15,1L229.53,89l-.32,2,5.34.85.32-2-1.57-.25.15-1Z"/><path class="cls-1" d="M276.09,155.76l-.72.72-3.89-3.9-2,2,3.89,3.89-.72.72-8.1-8.1.72-.72,3.56,3.56,1.95-1.95-3.56-3.57.72-.72Z"/><path class="cls-1" d="M280.15,151.7l-.67.68-.14-.14-.71.92a10.78,10.78,0,0,1-.75.88.7.7,0,0,1-1.13,0l-1.84-1.83a.74.74,0,0,1,0-1.17l1.62-1.62L275,147.9l-1.48,1.48.86.86-.67.67-.85-.85a.72.72,0,0,1,0-1.16l1.66-1.66a.72.72,0,0,1,1.16,0Zm-1.29,0L277.08,150l-1.54,1.54,1.81,1.81Z"/><path class="cls-1" d="M284.18,147.67l-.69.69-4.42-4.42-1.48,1.56,4.38,4.38-.69.69-5-5,.69-.69.14.14c.24-.3.47-.61.71-.92a10.26,10.26,0,0,1,.75-.88.71.71,0,0,1,1.14,0Z"/><path class="cls-1" d="M288.16,143.7l-.69.68-.14-.14c-.62.85-1,1.32-1.05,1.4a1.31,1.31,0,0,1-1,.41,1.52,1.52,0,0,1-1-.47l-2.95-3a1.49,1.49,0,0,1,0-2.16l1.13-1.13-3.06-3.07.68-.68Zm-1.31.05L283,140l-1,1a.72.72,0,0,0,0,1.15l2.69,2.7a.73.73,0,0,0,1.16,0Z"/><path class="cls-1" d="M293.32,135.6a2,2,0,0,1,.64,1.47,2.09,2.09,0,0,1-.66,1.48l-1.85,1.85-8.1-8.1,1.85-1.86a2,2,0,0,1,1.48-.65,2,2,0,0,1,1.47.63Zm-.79.64-5-5a1.23,1.23,0,0,0-.89-.39,1.28,1.28,0,0,0-.9.4l-1,1,6.83,6.84,1-1a1.35,1.35,0,0,0,.44-.92A1.2,1.2,0,0,0,292.53,136.24Z"/><path class="cls-1" d="M295.23,129.86l-.68.68-1-1-1.23,1.31,4.38,4.38-.69.69-5-5,.69-.69.14.14.58-.8a8.15,8.15,0,0,1,.63-.75.7.7,0,0,1,1.13,0Z"/><path class="cls-1" d="M294.07,125.5l-.7.7-.87-.87.7-.7Zm6.13,6.15-.68.68-5-5,.67-.68Z"/><path class="cls-1" d="M302.09,129.76l-.68.68-8.1-8.11.68-.68Z"/><path class="cls-1" d="M304,127.87l-.68.68-8.1-8.11.68-.68Z"/><path class="cls-1" d="M153.43,106.48a.78.78,0,0,1-.63.06.77.77,0,0,1-.47-.43L151,103.48a.8.8,0,0,1-.07-.62.84.84,0,0,1,.42-.47l8.77-4.47a.85.85,0,0,1,.62-.06.84.84,0,0,1,.47.42l1.34,2.63a.79.79,0,0,1-.35,1.11l-2.37,1.21-.47-.92,2.3-1.17-1.16-2.27-8.61,4.39,1.16,2.27,2.51-1.28.47.91Z"/><path class="cls-1" d="M156.05,111.61a.73.73,0,0,1-1.11-.37l-1.11-2.18a.72.72,0,0,1,.36-1.1l4.88-2.49a.73.73,0,0,1,1.11.36l1.11,2.18a.73.73,0,0,1-.36,1.11Zm-.41-.89,4.82-2.45-1-1.92-4.83,2.46Z"/><path class="cls-1" d="M157.9,117.05l-.45-.87,5.58-2.84-1-1.89-5.52,2.82-.44-.87,6.35-3.24.44.87-.18.09.66.95a10.44,10.44,0,0,1,.61,1,.71.71,0,0,1-.35,1.08Z"/><path class="cls-1" d="M166.78,118.79l-7.16,1.67-.4-.79,5.55-4.82.46.89-4.45,3.63,5.56-1.45Z"/><path class="cls-1" d="M163.52,126.26a.73.73,0,0,1-1.11-.35l-1.06-2.09a.73.73,0,0,1,.36-1.11l4.88-2.48a.73.73,0,0,1,1.11.35l1.06,2.09a.73.73,0,0,1-.36,1.11l-2.29,1.16-.45-.13-1.23-2.42-2.3,1.17,1,1.87,1.16-.59.43.84Zm2.55-2.36,1.91-1-.95-1.87-1.91,1Z"/><path class="cls-1" d="M169.47,129.22l-.44-.85,1.32-.67-.87-1.57L164,128.94l-.44-.87,6.34-3.23.45.87-.18.09c.19.26.38.53.58.79a7.88,7.88,0,0,1,.52.83.71.71,0,0,1-.34,1.08Z"/><path class="cls-1" d="M168.25,135.54a.73.73,0,0,1-1.11-.36l-1-2a.73.73,0,0,1,.36-1.11l1.45-.74.43.86-1.43.73.9,1.75,1.26-.64.71-3.22a.9.9,0,0,1,.51-.67l1.06-.54a.73.73,0,0,1,1.11.36l1,2a.74.74,0,0,1-.36,1.12l-1.27.64-.43-.84,1.26-.64-.9-1.75-1.11.56-.69,3.24a.94.94,0,0,1-.53.67Z"/><path class="cls-1" d="M170,140.88l-.43-.85.17-.09-.66-1a9.33,9.33,0,0,1-.6-1,.7.7,0,0,1,.34-1.07l2.32-1.18a.74.74,0,0,1,1.11.37l1,2,1.91-1-1-1.87-1.09.55-.42-.84,1.07-.55a.73.73,0,0,1,1.11.36l1.06,2.09a.72.72,0,0,1-.37,1.1Zm.36-1.24,2.25-1.14-1-1.94-2.28,1.16Z"/><path class="cls-1" d="M171.93,144.59l-.63-1.23a.73.73,0,0,1,.37-1.11l4.85-2.47-.39-.76.76-.39.39.76,2-1,.43.86-2,1,.56,1.11-.76.39-.57-1.11-4.82,2.45.57,1.11Z"/><path class="cls-1" d="M173,146.61l-.44-.86,6.35-3.23.44.85Zm7.74-3.93-.44-.88,1.09-.56.45.88Z"/><path class="cls-1" d="M176.31,151.35a.73.73,0,0,1-1.12-.36l-1.11-2.18a.72.72,0,0,1,.37-1.1l4.87-2.49a.73.73,0,0,1,1.11.36l1.11,2.18a.73.73,0,0,1-.36,1.11Zm-.42-.88,4.82-2.45-1-1.92-4.82,2.46Z"/><path class="cls-1" d="M178.15,156.8l-.44-.87,5.57-2.84-1-1.89L176.73,154l-.44-.86,6.35-3.24.44.87-.17.09c.21.32.43.64.66.95s.46.73.6,1a.71.71,0,0,1-.34,1.08Z"/><path class="cls-1" d="M189.16,93.3a.76.76,0,0,1-.61-.13.84.84,0,0,1-.32-.54l-.59-3.74L199,87.1l.59,3.7a.81.81,0,0,1-.13.62.79.79,0,0,1-.55.31l-3.36.54a1,1,0,0,1-.82-.29l-.6-.72-.41.94a.8.8,0,0,1-.67.49Zm-.07-1,3.91-.62.51-1.13-.24-1.5-4.58.73Zm6.13-1,3.41-.54-.4-2.49-4.08.64.23,1.49Z"/><path class="cls-1" d="M189.26,99.1l-.15-.95.19,0L189,97a11,11,0,0,1-.27-1.14.7.7,0,0,1,.66-.9l6.3-1,.15.94-6.18,1L190,98l6.12-1,.15.95Z"/><path class="cls-1" d="M190.93,104.33a.73.73,0,0,1-1-.69l-.35-2.2a.73.73,0,0,1,.69-1l1.6-.25.15,1-1.59.25.31,1.94,1.4-.22,1.67-2.84a.89.89,0,0,1,.69-.48l1.17-.19a.73.73,0,0,1,.95.69l.34,2.17a.73.73,0,0,1-.68.95l-1.41.22-.14-.93,1.39-.22-.31-1.94-1.23.19L193,103.65a1,1,0,0,1-.71.47Z"/><path class="cls-1" d="M198,108.84l-7.25-.59-2.84-.27-.15-1,2.84.28,6.7-2.84.16,1-5.35,2.08,5.73.34Z"/><path class="cls-1" d="M193.2,118.8a.76.76,0,0,1-.61-.13.8.8,0,0,1-.32-.55l-.5-3.17a.78.78,0,0,1,.68-.93l9.71-1.54a.83.83,0,0,1,.62.14.78.78,0,0,1,.31.54l.5,3.17a.76.76,0,0,1-.13.61.74.74,0,0,1-.54.32Zm-.07-1,9.54-1.51-.44-2.77L192.69,115Z"/><path class="cls-1" d="M203.56,121.63l-.21-1.36-3.44.54.19,1.2-.84.13-.19-1.2-6.2,1-.15-.94,6.2-1-.13-.82.84-.13.13.81,3.47-.55a.73.73,0,0,1,.94.68l.24,1.5Z"/><path class="cls-1" d="M204.12,125.15l-.21-1.36-3.44.54.19,1.2-.85.14-.19-1.2-6.19,1-.15-1,6.19-1-.13-.82.85-.13.13.81,3.47-.54a.72.72,0,0,1,.94.68L205,125Z"/><path class="cls-1" d="M193.94,128.67l-.15-.94,7-1.12.15,1Zm8.58-1.34-.15-1,1.22-.19.15,1Z"/><path class="cls-1" d="M195.64,134.09a.73.73,0,0,1-.95-.68l-.36-2.29a.73.73,0,0,1,.69-.94l5.4-.86a.74.74,0,0,1,1,.69l.36,2.28a.73.73,0,0,1-.69.94l-1.4.22-.15-.94,1.37-.22-.31-2-5.35.85.32,2,1.57-.25.15,1Z"/><path class="cls-1" d="M196.51,139.58a.73.73,0,0,1-.95-.68l-.36-2.31a.73.73,0,0,1,.69-.94l5.4-.86a.74.74,0,0,1,1,.68l.36,2.32a.73.73,0,0,1-.69.94l-2.53.4-.39-.27-.42-2.68-2.55.4.33,2.07,1.28-.2.15.93Zm3.15-1.45,2.12-.34-.33-2.07-2.12.34Z"/><path class="cls-1" d="M244.08,137.05l-.8,1.58,9.41,4.79-.46.91-9.41-4.8-.82,1.59-.8-.4,2.08-4.08Z"/><path class="cls-1" d="M255.83,137.25l-.43.85-.18-.09-.39,1.11a10.5,10.5,0,0,1-.45,1.08.69.69,0,0,1-1.06.34l-5.69-2.89.44-.86,5.57,2.84.93-1.95-5.52-2.81.44-.86Z"/><path class="cls-1" d="M257.05,131.49a1.5,1.5,0,0,1,.78.88,1.47,1.47,0,0,1-.1,1.16l-1.17,2.3-10.22-5.2.44-.87,4,2.06c.14-.37.27-.73.4-1.1a8.42,8.42,0,0,1,.44-1.07.71.71,0,0,1,1.08-.36Zm-.57.8-4.08-2.08-.92,1.94,4.75,2.42.62-1.2A.72.72,0,0,0,256.48,132.29Z"/><path class="cls-1" d="M260.21,126.84a.73.73,0,0,1,.36,1.11L259.51,130a.73.73,0,0,1-1.11.35l-4.88-2.48a.73.73,0,0,1-.36-1.11l1.06-2.09a.73.73,0,0,1,1.11-.35l2.29,1.16.15.45-1.23,2.41,2.3,1.17,1-1.86-1.16-.59.43-.84Zm-3.41-.67-1.91-1-.95,1.87,1.91,1Z"/><path class="cls-1" d="M255.45,114.75l-.81,1.58,9.41,4.79-.46.91-9.41-4.8-.81,1.6-.81-.41,2.08-4.08Z"/><path class="cls-1" d="M262.78,113.09l-.44.85-1.31-.66-.76,1.62,5.52,2.81-.45.87L259,115.35l.45-.87.17.09c.11-.31.21-.62.31-.94a6.15,6.15,0,0,1,.36-.91.71.71,0,0,1,1.08-.35Z"/><path class="cls-1" d="M269.43,110.57l-.44.85-.17-.09-.39,1.1a10.87,10.87,0,0,1-.45,1.07.7.7,0,0,1-1.06.35l-2.32-1.18a.73.73,0,0,1-.36-1.11l1-2-1.91-1-.95,1.87,1.09.55-.43.84-1.07-.54a.73.73,0,0,1-.37-1.11l1.07-2.09a.73.73,0,0,1,1.11-.35Zm-1.22.44L266,109.86l-1,1.94,2.28,1.17Z"/><path class="cls-1" d="M262.88,104.28l-.45.88-1.09-.56.44-.88Zm7.73,4-.43.85-6.35-3.23.44-.86Z"/><path class="cls-1" d="M273.22,103.12l-.44.86-5.57-2.84-.92,1.94,5.52,2.82-.44.86L265,103.53l.44-.87.17.09.39-1.09a8,8,0,0,1,.45-1.07.71.71,0,0,1,1.08-.37Z"/><path class="cls-1" d="M279,179.15a.82.82,0,0,1,.07.63.84.84,0,0,1-.42.47l-2.41,1.23,2.06,4.05-.9.46-5.21-10.21,3.32-1.69a.76.76,0,0,1,.62-.06.78.78,0,0,1,.48.41Zm-.94.38L275.69,175l-2.23,1.14,2.32,4.55Z"/><path class="cls-1" d="M286,180.66a.72.72,0,0,1-.36,1.11l-2.18,1.11a.72.72,0,0,1-1.1-.36l-2.49-4.88a.73.73,0,0,1,.36-1.11l2.18-1.11a.73.73,0,0,1,1.11.36Zm-.88.41-2.45-4.82-1.92,1,2.46,4.83Z"/><path class="cls-1" d="M288.69,180.21l-.85.44-5.21-10.22.86-.43Z"/><path class="cls-1" d="M287.15,171.25l-.89.45-.56-1.1.89-.45Zm3.93,7.75-.86.43L287,173.08l.85-.43Z"/><path class="cls-1" d="M295.7,175.71a.73.73,0,0,1-.36,1.11l-2.06,1.05a.73.73,0,0,1-1.11-.36l-2.48-4.88a.73.73,0,0,1,.36-1.11l2.06-1.05a.72.72,0,0,1,1.1.37l.65,1.26-.85.44-.64-1.24-1.8.92L293,177l1.8-.92-.72-1.41.85-.44Z"/><path class="cls-1" d="M300.66,173.19a.73.73,0,0,1-.36,1.11l-2.09,1.06a.72.72,0,0,1-1.1-.37l-2.49-4.87A.73.73,0,0,1,295,169l2.09-1.06a.72.72,0,0,1,1.1.36l1.17,2.28-.14.46-2.41,1.23,1.17,2.3,1.86-1-.59-1.16.84-.43Zm-2.36-2.55-1-1.91-1.87,1,1,1.91Z"/><path class="cls-1" d="M308.8,169.05a.82.82,0,0,1,.07.63.76.76,0,0,1-.42.46l-2.57,1.31a.82.82,0,0,1-.63.07.84.84,0,0,1-.47-.42l-1.32-2.59.91-.46,1.28,2.51,2.21-1.12L306.62,167l-4.56-2a1.33,1.33,0,0,1-.69-.63l-1.05-2.06a.78.78,0,0,1-.06-.63.77.77,0,0,1,.42-.47l2.57-1.31a.76.76,0,0,1,.62-.06.77.77,0,0,1,.47.42l1.21,2.37-.91.47-1.17-2.3L301.26,162l1.1,2.16,4.57,2a1.35,1.35,0,0,1,.67.62Z"/><path class="cls-1" d="M307.65,160.8l-.88.45-.56-1.09.88-.45Zm3.93,7.75-.85.43-3.24-6.35.85-.43Z"/><path class="cls-1" d="M314.21,161.84l-.86.44-.67-1.31-1.57.86,2.81,5.53-.86.44-3.24-6.35.87-.44.09.17.8-.58a7,7,0,0,1,.82-.52.71.71,0,0,1,1.08.35Z"/><path class="cls-1" d="M320.65,163a.73.73,0,0,1-.35,1.11l-2.09,1.06a.73.73,0,0,1-1.11-.36l-2.48-4.88a.73.73,0,0,1,.36-1.11l2.08-1.06a.73.73,0,0,1,1.11.36l1.16,2.29-.13.45-2.42,1.23,1.17,2.3,1.87-.95-.59-1.16.84-.43Zm-2.35-2.55-1-1.91-1.87,1,1,1.91Z"/><path class="cls-1" d="M326.11,161.14l-.86.45L322.41,156l-1.89,1,2.81,5.52-.86.44-3.24-6.35.87-.44.09.18.95-.66a9.34,9.34,0,0,1,1-.61.72.72,0,0,1,1.09.35Z"/><path class="cls-1" d="M282.17,206a.8.8,0,0,1-.14.61.79.79,0,0,1-.54.32l-2.63.42a.83.83,0,0,1-.62-.14.77.77,0,0,1-.31-.54l-.46-2.87,1-.16.44,2.78,2.23-.35-1.66-10.43,1-.16Z"/><path class="cls-1" d="M288,205.92l-.94.15,0-.19-1.12.33c-.47.13-.84.22-1.13.27a.71.71,0,0,1-.91-.66l-.4-2.57a.72.72,0,0,1,.68-.94l2.27-.36-.34-2.12-2.06.33.18,1.2-.93.15-.19-1.19a.73.73,0,0,1,.68-.94L286,199a.74.74,0,0,1,.94.69Zm-1.07-.73-.39-2.48-2.15.34.4,2.53Z"/><path class="cls-1" d="M293.32,204.24a.73.73,0,0,1-.68.94l-2.29.36a.72.72,0,0,1-.94-.68l-.85-5.41a.72.72,0,0,1,.68-.94l2.28-.37a.73.73,0,0,1,.94.69l.22,1.41-.94.15-.22-1.38-2,.32.85,5.34,2-.31-.25-1.57.95-.15Z"/><path class="cls-1" d="M299,204.18l-1,.17-2.51-3.28.57,3.58-1,.16-1.79-11.32,1-.16,1.14,7.19,1.35-3.19,1-.16v0l-1.55,3.44Z"/><path class="cls-1" d="M304,203.38l-1,.15-1-6.18-2.11.4,1,6.12-1,.15-1.79-11.32,1-.15.71,4.47,1.12-.32a11.23,11.23,0,0,1,1.12-.28.72.72,0,0,1,.93.67Z"/><path class="cls-1" d="M309.55,202.5l-.95.15,0-.19-1.12.33a11.5,11.5,0,0,1-1.12.27.71.71,0,0,1-.91-.66l-.41-2.57a.74.74,0,0,1,.69-.94l2.27-.35-.34-2.12-2.07.32.19,1.2-.93.15-.19-1.18a.73.73,0,0,1,.68-.95l2.32-.37a.74.74,0,0,1,.94.69Zm-1.07-.72-.4-2.49-2.14.34.4,2.53Z"/><path class="cls-1" d="M318.2,201.13l-1,.16-1-6.18-2.09.39,1,6.12-.95.15-1-6.18-2.09.39,1,6.12-1,.15-1.12-7,1-.16,0,.2,1.1-.33a10.27,10.27,0,0,1,1.12-.27.78.78,0,0,1,.7.17l1.18-.36a9.69,9.69,0,0,1,1.18-.29.7.7,0,0,1,.92.66Z"/><path class="cls-1" d="M326.84,199.77l-1,.15-1-6.18-2.09.39,1,6.12-.95.15-1-6.18-2.09.39,1,6.12-1,.16-1.12-7,1-.16,0,.2,1.11-.33a10.27,10.27,0,0,1,1.12-.27.78.78,0,0,1,.69.17l1.19-.36a9.63,9.63,0,0,1,1.17-.29.71.71,0,0,1,.92.66Z"/><path class="cls-1" d="M332.21,198.08a.72.72,0,0,1-.68.94l-2.32.37a.73.73,0,0,1-.94-.69l-.85-5.4a.73.73,0,0,1,.68-1l2.31-.37a.73.73,0,0,1,.94.69l.4,2.54-.27.39-2.67.42.4,2.55,2.07-.33-.21-1.29.94-.15Zm-1.46-3.15-.33-2.12-2.07.32.33,2.12Z"/><path class="cls-1" d="M336.86,193.34l-.94.15-.23-1.46-1.77.34,1,6.12-1,.15-1.11-7,1-.15,0,.2.94-.31a6.5,6.5,0,0,1,.94-.24.71.71,0,0,1,.92.67Z"/></g></svg>